<?xml version="1.0" standalone="no"?><!DOCTYPE svg PUBLIC "-//W3C//DTD SVG 1.1//EN" "http://www.w3.org/Graphics/SVG/1.1/DTD/svg11.dtd"><svg t="1632569754204" class="icon" viewBox="0 0 1024 1024" version="1.1" xmlns="http://www.w3.org/2000/svg" p-id="1922" width="64" height="64" xmlns:xlink="http://www.w3.org/1999/xlink"><defs><style type="text/css"></style></defs><path d="M833.024 731.392H386.0992c-26.9824 0-49.6128-19.3536-53.8112-46.0288l-75.6736-484.352c-7.7312-49.6128-49.8176-85.6576-100.0448-85.6576h-27.904c-16.9472 0-30.72 13.7728-30.72 30.72s13.7728 30.72 30.72 30.72h27.904a39.68 39.68 0 0 1 39.3728 33.6896l75.6736 484.352c8.8576 56.7808 57.0368 97.9968 114.4832 97.9968h446.9248c16.9472 0 30.72-13.7728 30.72-30.72s-13.7216-30.72-30.72-30.72z" fill="#363F5B" p-id="1923"></path><path d="M882.3296 237.4144c-16.4352-19.456-40.3968-30.5664-65.8432-30.5664H364.3392c-16.9472 0-30.72 13.7728-30.72 30.72s13.7728 30.72 30.72 30.72h452.1472c9.984 0 16.128 5.5296 18.8928 8.8064s7.168 10.24 5.4784 20.1216l-41.5744 244.4288a24.63232 24.63232 0 0 1-22.8352 20.5312l-361.3696 22.6816a30.70464 30.70464 0 0 0 1.8944 61.3376c0.6656 0 1.28 0 1.9456-0.0512l361.3696-22.6816c40.0896-2.5088 72.8576-31.9488 79.5648-71.5776l41.5744-244.4288c4.3008-25.088-2.6624-50.5856-19.0976-70.0416z" fill="#363F5B" p-id="1924"></path><path d="M358.4 875.2128m-43.6736 0a43.6736 43.6736 0 1 0 87.3472 0 43.6736 43.6736 0 1 0-87.3472 0Z" fill="#B11EFF" p-id="1925"></path><path d="M772.1984 875.2128m-43.6736 0a43.6736 43.6736 0 1 0 87.3472 0 43.6736 43.6736 0 1 0-87.3472 0Z" fill="#B11EFF" p-id="1926"></path></svg>