<?xml version="1.0" standalone="no"?><!DOCTYPE svg PUBLIC "-//W3C//DTD SVG 1.1//EN" "http://www.w3.org/Graphics/SVG/1.1/DTD/svg11.dtd"><svg t="1632569773738" class="icon" viewBox="0 0 1024 1024" version="1.1" xmlns="http://www.w3.org/2000/svg" p-id="2150" xmlns:xlink="http://www.w3.org/1999/xlink" width="64" height="64"><defs><style type="text/css"></style></defs><path d="M777.2672 674.304c-31.8464-67.584-88.3712-119.1936-155.7504-146.0224 31.9488-29.0816 52.0704-71.0144 52.0704-117.5552 0-87.6544-71.2704-158.9248-158.9248-158.9248S355.7376 323.1232 355.7376 410.7776c0 46.4896 20.0704 88.3712 51.968 117.4528-107.1616 42.6496-183.1936 147.4048-183.1936 269.6192 0 14.336 1.0752 28.8768 3.2256 43.1616 2.2528 15.2576 15.36 26.2144 30.3616 26.2144 1.4848 0 3.0208-0.1024 4.5568-0.3584a30.70976 30.70976 0 0 0 25.856-34.9184c-1.6896-11.3152-2.56-22.7328-2.56-34.0992 0-122.88 97.4336-223.3856 219.0848-228.4544 3.1744 0.2048 6.3488 0.3072 9.5744 0.3072 3.2768 0 6.5024-0.1536 9.728-0.3072 84.3776 3.6352 161.0752 54.272 197.2736 131.1232 7.2192 15.36 25.5488 21.9648 40.8576 14.6944a30.70976 30.70976 0 0 0 14.7968-40.9088zM417.1776 410.7776c0-53.76 43.7248-97.4848 97.4848-97.4848s97.4848 43.7248 97.4848 97.4848c0 50.9952-39.424 92.928-89.344 97.0752-2.7136-0.1024-5.4272-0.1536-8.1408-0.1536-2.4576 0-4.9152 0.1024-7.3728 0.2048-50.2784-3.84-90.112-45.8752-90.112-97.1264z" fill="#d81e06" p-id="2151"></path><path d="M514.6624 956.7232c-244.3776 0-443.2384-198.8096-443.2384-443.2384s198.8096-443.2384 443.2384-443.2384 443.2384 198.8096 443.2384 443.2384c0 65.28-13.8752 128.1536-41.216 186.88-7.168 15.36-25.4464 22.0672-40.8064 14.8992-15.36-7.168-22.016-25.4464-14.8992-40.8064 23.552-50.5344 35.4816-104.704 35.4816-160.9216 0-210.5344-171.264-381.7984-381.7984-381.7984S132.864 303.0016 132.864 513.536s171.264 381.7984 381.7984 381.7984c80.9984 0 158.3104-25.0368 223.6928-72.3456 13.7216-9.9328 32.9216-6.8608 42.9056 6.8608a30.76096 30.76096 0 0 1-6.8608 42.9056c-75.9296 54.9376-165.7344 83.968-259.7376 83.968z" fill="#d81e06" p-id="2152"></path></svg>